<?xml version="1.0" standalone="no"?>
<!DOCTYPE svg PUBLIC "-//W3C//DTD SVG 1.1//EN" "http://www.w3.org/Graphics/SVG/1.1/DTD/svg11.dtd">
<!--Generator: Xara Designer (www.xara.com), SVG filter version: 6.6.0.9-->
<svg fill="none" fill-rule="evenodd" stroke="black" stroke-width="0.501" stroke-linejoin="bevel" stroke-miterlimit="10" font-family="Times New Roman" font-size="16" style="font-variant-ligatures:none" xmlns:xlink="http://www.w3.org/1999/xlink" xmlns="http://www.w3.org/2000/svg" version="1.1" overflow="visible" width="113.64pt" height="52.272pt" viewBox="351.22 -160.639 113.64 52.272">
 <defs>
  <style type="text/css">@import url('https://themes.googleusercontent.com/fonts/css?family=Open Sans:400,600');</style>
 </defs>
 <g id="Layer 1" transform="scale(1 -1)">
  <path d="M 405.503,108.479 L 404.777,110.036 L 404.474,110.693 L 400.569,119.11 C 398.462,123.654 395.036,131.028 392.932,135.574 L 387.998,146.206 C 385.512,151.554 382.921,152.777 381.548,152.777 C 380.182,152.773 377.592,151.55 375.119,146.188 L 370.192,135.537 C 368.095,130.987 364.684,123.608 362.586,119.066 L 357.685,108.451 L 351.22,111.412 L 356.136,122.041 C 358.236,126.591 361.644,133.97 363.739,138.52 L 368.664,149.171 C 371.51,155.338 375.919,159.88 381.545,159.881 C 387.173,159.892 391.582,155.355 394.446,149.199 L 399.379,138.558 C 400.781,135.535 402.77,131.256 404.562,127.391 L 404.72,156.269 L 404.726,157.875 L 406.142,158.518 L 410.573,160.546 L 411.519,158.489 L 411.831,157.811 L 415.474,149.94 C 417.572,145.395 420.983,138.013 423.082,133.466 L 428.008,122.811 C 430.484,117.456 433.067,116.229 434.437,116.229 C 435.806,116.222 438.396,117.446 440.88,122.8 L 445.817,133.432 C 447.925,137.978 451.344,145.346 453.456,149.892 L 458.389,160.527 C 458.406,160.565 458.42,160.598 458.444,160.636 L 458.437,160.639 L 461.625,159.118 L 464.86,157.579 C 464.853,157.563 464.845,157.548 464.84,157.534 L 459.903,146.903 C 457.791,142.356 454.373,134.984 452.264,130.441 L 447.327,119.807 C 444.474,113.651 440.055,109.111 434.43,109.114 C 428.804,109.125 424.399,113.665 421.55,119.828 L 416.63,130.486 C 415.299,133.357 413.454,137.359 411.741,141.057 L 411.583,112.258 L 411.581,111.239 L 411.575,109.997 L 405.549,108.367 C 405.536,108.401 405.518,108.441 405.503,108.479 Z" fill="#000000" stroke="none" fill-rule="evenodd" stroke-width="0.145" marker-start="none" marker-end="none"/>
 </g>
</svg>
