<?xml version="1.0" standalone="no"?>
<!DOCTYPE svg PUBLIC "-//W3C//DTD SVG 1.1//EN" "http://www.w3.org/Graphics/SVG/1.1/DTD/svg11.dtd">
<!--Generator: Xara Designer (www.xara.com), SVG filter version: 6.6.0.8-->
<svg fill="none" fill-rule="evenodd" stroke="black" stroke-width="0.501" stroke-linejoin="bevel" stroke-miterlimit="10" font-family="Times New Roman" font-size="16" style="font-variant-ligatures:none" xmlns:xlink="http://www.w3.org/1999/xlink" xmlns="http://www.w3.org/2000/svg" version="1.1" overflow="visible" width="36.785pt" height="16.92pt" viewBox="201.045 -513.075 36.785 16.92">
 <defs>
  <style type="text/css">@import url('https://themes.googleusercontent.com/fonts/css?family=Open Sans:400,600');</style>
 </defs>
 <g id="Layer 1" transform="scale(1 -1)">
  <path d="M 218.616,496.191 L 217.019,499.632 C 216.337,501.103 215.228,503.49 214.547,504.961 L 212.95,508.403 C 212.145,510.135 211.307,510.53 210.862,510.53 C 210.42,510.529 209.582,510.133 208.781,508.397 L 207.186,504.95 C 206.508,503.477 205.404,501.088 204.724,499.618 L 203.138,496.182 L 201.045,497.14 L 202.636,500.581 C 203.316,502.054 204.419,504.443 205.098,505.915 L 206.692,509.363 C 207.613,511.359 209.04,512.829 210.861,512.83 C 212.683,512.833 214.11,511.365 215.037,509.372 L 216.634,505.928 C 217.317,504.459 218.425,502.073 219.106,500.601 L 220.704,497.16 C 220.706,497.155 220.708,497.15 220.711,497.145 L 219.664,496.647 L 218.631,496.155 L 218.632,496.155 C 218.628,496.166 218.622,496.179 218.616,496.191 Z" fill="#569a57" stroke-width="0.047" stroke="none" fill-rule="evenodd" marker-start="none" marker-end="none"/>
  <path d="M 219.439,497.84 L 219.511,511.236" fill="none" stroke="#569a57" stroke-linecap="square" stroke-width="2.3"/>
  <path d="M 235.736,513.039 L 234.139,509.596 C 233.455,508.125 232.349,505.74 231.666,504.269 L 230.068,500.827 C 229.264,499.094 228.425,498.697 227.983,498.7 C 227.539,498.7 226.703,499.097 225.901,500.83 L 224.307,504.279 C 223.627,505.751 222.523,508.141 221.844,509.612 L 220.257,513.045 L 218.166,512.089 L 219.754,508.646 C 220.434,507.176 221.538,504.787 222.218,503.315 L 223.811,499.865 C 224.733,497.87 226.159,496.4 227.98,496.397 C 229.801,496.396 231.231,497.865 232.155,499.858 L 233.753,503.3 C 234.436,504.771 235.542,507.157 236.226,508.629 L 237.824,512.07 C 237.825,512.075 237.828,512.08 237.83,512.085 L 236.783,512.583 L 235.751,513.075 L 235.753,513.074 C 235.746,513.062 235.741,513.051 235.736,513.039 Z" fill-rule="evenodd" stroke="none" stroke-width="0.047" fill="#569a57" marker-start="none" marker-end="none"/>
 </g>
</svg>
